<svg id="artwork" xmlns="http://www.w3.org/2000/svg" width="1024" height="140" viewBox="0 0 1024 140"><defs><style>.cls-1{fill:#ff004a}.cls-2{fill:#4695eb}</style></defs><path class="cls-1" d="M33.23 17.54v23.59a5.9 5.9 0 008.85 5.11l20.44-11.79a5.9 5.9 0 000-10.22l-20.44-11.8a5.9 5.9 0 00-8.85 5.11z"/><path class="cls-2" d="M109.5 17.54v23.59a5.9 5.9 0 01-8.85 5.11L80.22 34.45a5.9 5.9 0 010-10.22l20.43-11.8a5.9 5.9 0 018.85 5.11z"/><path class="cls-1" d="M42.08 134.31l20.44-11.8a5.9 5.9 0 000-10.22L42.08 100.5a5.9 5.9 0 00-8.85 5.11v23.59a5.9 5.9 0 008.85 5.11z"/><path class="cls-2" d="M4 68.26l20.43-11.8a5.9 5.9 0 018.85 5.11v23.6a5.9 5.9 0 01-8.85 5.11L4 78.48a5.9 5.9 0 010-10.22z"/><path class="cls-1" d="M138.79 68.26l-20.44-11.8a5.9 5.9 0 00-8.85 5.11v23.6a5.9 5.9 0 008.85 5.11l20.44-11.8a5.9 5.9 0 000-10.22z"/><path class="cls-2" d="M100.65 134.31l-20.43-11.8a5.9 5.9 0 010-10.22l20.43-11.79a5.89 5.89 0 018.85 5.11v23.59a5.9 5.9 0 01-8.85 5.11z"/><path d="M45.35 61.29h-.05A3.14 3.14 0 0040.62 64v18.09a16.64 16.64 0 008.32 14.42l15.65 9a3.15 3.15 0 004.69-2.71V84.74A16.66 16.66 0 0061 70.32zm28.06 41.52a3.15 3.15 0 004.69 2.71h.05l15.65-9a16.64 16.64 0 008.32-14.42V64a3.15 3.15 0 00-4.69-2.71l-15.65 9a16.64 16.64 0 00-8.33 14.42zm22.23-45.32a3.16 3.16 0 000-5.43L80 43a16.62 16.62 0 00-16.65 0l-15.66 9a3.16 3.16 0 000 5.43l15.65 9a16.67 16.67 0 0016.65 0zm180.81 6.32q0 15.85-5.62 26.58a34.33 34.33 0 01-16.5 15.71L276 130.25h-24.4l-16.47-20.16h-1.41q-20.66 0-31.72-12t-11.1-34.4q0-22.44 11.09-34.26t31.81-11.84q20.72 0 31.68 11.93t10.97 34.29zm-65.58 0q0 15.06 5.72 22.68t17.09 7.62q22.8 0 22.8-30.3T233.8 33.45q-11.37 0-17.15 7.65t-5.78 22.71zM365.69 19v58.15a33.48 33.48 0 01-4.45 17.45 29.07 29.07 0 01-12.88 11.5q-8.42 4-19.91 4-17.34 0-26.92-8.88t-9.59-24.32V19h19v55q0 10.39 4.18 15.25t13.83 4.85q9.35 0 13.55-4.88t4.21-15.34V19zm74.5 89.86l-6.52-21.39h-32.76l-6.51 21.39h-20.53l31.71-90.22h23.3l31.83 90.22zm-11.07-37.37q-9-29.07-10.17-32.88c-.76-2.54-1.3-4.54-1.63-6q-2 7.88-11.61 38.9zm59.44 2.89v34.48H469.5V19h26.19q18.31 0 27.1 6.67t8.79 20.25A23.9 23.9 0 01527.22 60a28.82 28.82 0 01-12.36 9.68q20.28 30.3 26.43 39.15h-21.14L498.7 74.38zm0-15.48h6.14q9 0 13.34-3t4.3-9.46q0-6.39-4.39-9.1t-13.62-2.7h-5.77zm133.8 49.96h-21.64L577.18 71l-8 5.78v32.08h-19V19h19v41.12l7.5-10.57L601 19h21.14l-31.37 39.77zm8.79 0V19h19.05v89.85zM721.56 19h19.24l-30.55 89.85h-20.77L659 19h19.24l16.9 53.47q1.41 4.72 2.92 11c1 4.2 1.63 7.12 1.87 8.76q.69-5.65 4.61-19.79zm79.78 89.86h-51.75V19h51.75v15.62h-32.7v19.73h30.42V70h-30.42v23.13h32.7zm35.28-34.48v34.48h-19.06V19h26.19q18.32 0 27.1 6.67t8.79 20.25A23.9 23.9 0 01875.28 60a28.82 28.82 0 01-12.36 9.68q20.28 30.3 26.43 39.15h-21.14l-21.45-34.45zm0-15.48h6.14q9 0 13.34-3t4.3-9.46q0-6.39-4.39-9.1t-13.62-2.7h-5.77zm114.56 25.01q0 12.16-8.76 19.17t-24.37 7q-14.37 0-25.44-5.41V87A104.49 104.49 0 00908 92.7a45.91 45.91 0 0011.53 1.66q6.27 0 9.62-2.4a8.2 8.2 0 003.35-7.13 7.82 7.82 0 00-1.48-4.7 16.55 16.55 0 00-4.33-4A112.53 112.53 0 00915 70.08a54.87 54.87 0 01-12.35-7.44 27.82 27.82 0 01-6.58-8.29 23.68 23.68 0 01-2.46-11.07q0-11.91 8.09-18.74t22.34-6.82a52.53 52.53 0 0113.36 1.66 90.93 90.93 0 0113.31 4.67l-6.11 14.81a89.25 89.25 0 00-11.89-4.12 38.2 38.2 0 00-9.25-1.17q-5.4 0-8.3 2.52a8.34 8.34 0 00-2.88 6.58 8.19 8.19 0 001.16 4.39 12.9 12.9 0 003.72 3.63A114.3 114.3 0 00929.24 57q12.6 6 17.27 12.08a23.57 23.57 0 014.67 14.83zm65.52 24.95H965V19h51.75v15.62H984v19.73h30.43V70H984v23.13h32.7z" fill="#fff"/></svg>